<svg xmlns="http://www.w3.org/2000/svg" viewBox="0 0 201.19 201.19"><defs><style>.cls-1{fill:#89c7bb;}.cls-2{fill:#fff;}.cls-3{fill:#e83e59;}</style></defs><g id="Ebene_2" data-name="Ebene 2"><g id="Ebene_1-2" data-name="Ebene 1"><g id="Appicon"><circle id="Ellipse_6" data-name="Ellipse 6" class="cls-1" cx="100.6" cy="100.6" r="99.6"/><path class="cls-2" d="M100.6,201.19A100.6,100.6,0,1,1,201.19,100.6,100.71,100.71,0,0,1,100.6,201.19ZM100.6,2a98.6,98.6,0,1,0,98.59,98.6A98.71,98.71,0,0,0,100.6,2Z"/><path class="cls-2" d="M18.87,120.88l-1.63-7.83a28.09,28.09,0,0,0,9.64-4l4.33,6.73A36.42,36.42,0,0,1,18.87,120.88ZM185,118.24a59.14,59.14,0,0,1-7.62-.79l1.34-7.88a52.61,52.61,0,0,0,6.61.67ZM165,113.59a44.48,44.48,0,0,1-10.84-7.34l5.39-5.92a36,36,0,0,0,8.9,6ZM41,107.31l-5.91-5.39a87.53,87.53,0,0,0,7.06-9l6.57,4.57A94.38,94.38,0,0,1,41,107.31ZM145.71,96.63c-2.47-3.42-4.67-7-6.69-10.37l6.86-4.12c1.93,3.22,4,6.63,6.32,9.8ZM55.44,87.29,48.7,83c2.14-3.35,4.36-6.81,6.68-10.16L62,77.38C59.72,80.6,57.54,84,55.44,87.29Zm77.41-11.2a74.16,74.16,0,0,0-6.74-9.15l6-5.3a82.05,82.05,0,0,1,7.49,10.14ZM69,68.28,63,63a56.82,56.82,0,0,1,9.5-8.67l4.64,6.52A49.26,49.26,0,0,0,69,68.28Zm48.94-8.42a32.81,32.81,0,0,0-9.78-4.16l2-7.76a41.46,41.46,0,0,1,12.11,5.16ZM86.7,56l-2.4-7.63a43.66,43.66,0,0,1,13-2l0,8A36,36,0,0,0,86.7,56Z"/><g id="Gruppe_558" data-name="Gruppe 558"><g id="Gruppe_556" data-name="Gruppe 556"><g id="Gruppe_555" data-name="Gruppe 555"><path id="Pfad_5" data-name="Pfad 5" class="cls-3" d="M144.91,136.68a7.72,7.72,0,0,1-6.66,8.41,7.11,7.11,0,0,1-7.13-4.19l-3.63.32-2.75,1.33a2.06,2.06,0,0,0-1.14,1.59,24.07,24.07,0,0,1-1.39,5.35,2.09,2.09,0,0,0,.12,1.76l1,1.75,2.72,1.82a4.89,4.89,0,1,1-2.81,6.32,4.52,4.52,0,0,1-.28-1.08l-3-2-1.9-.23a2.15,2.15,0,0,0-1.77.6,24.47,24.47,0,0,1-5.38,3.88,2.18,2.18,0,0,0-1.13,1.78l-.24,3.84,1.19,4.73a6.09,6.09,0,1,1-5.88,1.52l-1.2-4.77-1.85-3a2.7,2.7,0,0,0-2.32-1.27h0a25.13,25.13,0,0,1-4.74-.46,2.7,2.7,0,0,0-2.5.78l-2.45,2.58L87,173.73a4.89,4.89,0,1,1-6.55-2.22,5.83,5.83,0,0,1,1.06-.38l2.76-5.71.54-3.84a2.05,2.05,0,0,0-.73-1.87,24.56,24.56,0,0,1-5.54-6.35,2,2,0,0,0-1.72-1l-3.83,0-4.2,1.32A6.85,6.85,0,1,1,66.71,148l4.45-1.4,3.25-2.32a1.69,1.69,0,0,0,.7-1.51c-.06-.65-.08-1.31-.08-2a24,24,0,0,1,2.22-10.15,1.7,1.7,0,0,0,0-1.43l-1-2-2.61-2a4.89,4.89,0,1,1,3.16-6.16,5.79,5.79,0,0,1,.22,1.1l2.9,2.18,2.92.52a24.35,24.35,0,0,1,7.32-4.69l.68-4.16-.86-4.3a7,7,0,0,1-5.2-5.24,6.85,6.85,0,0,1,5.46-8l.21,0A7.25,7.25,0,0,1,99,101.78a6.67,6.67,0,0,1-3,7l.82,4.06,2,3.2a.73.73,0,0,0,.61.33h0a24.31,24.31,0,0,1,12.57,3.5.72.72,0,0,0,.67,0l3.14-1.46,3.67-4a4.89,4.89,0,1,1,5.58,4.08,4.68,4.68,0,0,1-1.12,0l-3.67,4-1.19,3.2a.71.71,0,0,0,.09.66,24.48,24.48,0,0,1,3.4,6.58,2.09,2.09,0,0,0,1.4,1.34l3,.84,3.88-.34a7.49,7.49,0,0,1,6.24-5.11,7.29,7.29,0,0,1,7.83,6.72c0,.08,0,.16,0,.24Z"/></g></g><g id="Gruppe_557" data-name="Gruppe 557"><circle id="Ellipse_7" data-name="Ellipse 7" class="cls-3" cx="69.03" cy="102.75" r="5.14"/><circle id="Ellipse_8" data-name="Ellipse 8" class="cls-3" cx="67.62" cy="170.58" r="3.4"/><circle id="Ellipse_9" data-name="Ellipse 9" class="cls-3" cx="130.02" cy="176.16" r="5.01"/><circle id="Ellipse_10" data-name="Ellipse 10" class="cls-3" cx="93.89" cy="135.76" r="4.67"/><circle id="Ellipse_11" data-name="Ellipse 11" class="cls-3" cx="97.63" cy="150.26" r="3.18"/><circle id="Ellipse_12" data-name="Ellipse 12" class="cls-3" cx="107.61" cy="140.75" r="2.67"/></g></g><path class="cls-2" d="M19.32,121.42l-1.63-7.83C31.83,110.66,40,102.2,48.74,93.24,60.47,81.15,72.58,68.65,99,69.48c25.59.79,35.5,11.29,45.09,21.44,9.18,9.71,17.86,18.89,41.69,19.86l-.32,8c-27.09-1.09-37.77-12.39-47.18-22.36-9.25-9.79-17.24-18.24-39.53-18.93-22.89-.72-33.29,10-44.29,21.33C45.33,108.24,35.86,118,19.32,121.42Z"/><rect id="Rechteck_178" data-name="Rechteck 178" class="cls-2" x="96.08" y="12.59" width="6.82" height="20.47"/><path id="Pfad_7" data-name="Pfad 7" class="cls-2" d="M99.57,30.93h9.1l-4.55,7.89L99.57,46.7,95,38.82l-4.55-7.89Z"/></g></g></g></svg>