<svg xmlns="http://www.w3.org/2000/svg" viewBox="0 0 33.03 29.15"><defs><style>.cls-1{fill:#02856e;}</style></defs><g id="Ebene_2" data-name="Ebene 2"><g id="Ebene_1-2" data-name="Ebene 1"><g id="attentionbottombar"><path class="cls-1" d="M31,29.15H2.06A2.06,2.06,0,0,1,.28,26.06L14.73,1a2.05,2.05,0,0,1,3.56,0l14.46,25A2.06,2.06,0,0,1,31,29.15ZM16.51,1a1,1,0,0,0-.91.53l-14.46,25a1.06,1.06,0,0,0,0,1.06,1.07,1.07,0,0,0,.92.53H31a1,1,0,0,0,.91-.53,1.06,1.06,0,0,0,0-1.06l-14.45-25A1,1,0,0,0,16.51,1Z"/><rect class="cls-1" x="16.01" y="8.15" width="1" height="11"/><circle class="cls-1" cx="16.51" cy="22.15" r="1.25"/></g></g></g></svg>