<svg xmlns="http://www.w3.org/2000/svg" viewBox="0 0 67.83 67.83"><defs><style>.cls-1{fill:#89c7bb;}</style></defs><g id="Ebene_2" data-name="Ebene 2"><g id="Ebene_1-2" data-name="Ebene 1"><path id="badsmilegreen" class="cls-1" d="M33.92,0A33.92,33.92,0,1,0,67.83,33.92,33.91,33.91,0,0,0,33.92,0ZM14.69,21.56a6.13,6.13,0,1,1,6.13,6.13,6.13,6.13,0,0,1-6.13-6.13ZM18.3,50.94c1.44-8.27,8.86-13.72,16.1-12.81,5.82.72,10.82,5.48,12.2,11.83ZM47,27.69a6.13,6.13,0,1,1,6.13-6.13A6.12,6.12,0,0,1,47,27.69Z"/></g></g></svg>