<svg xmlns="http://www.w3.org/2000/svg" viewBox="0 0 241.51 241.24"><defs><style>.cls-1{fill:#fff;}</style></defs><g id="Ebene_2" data-name="Ebene 2"><g id="Ebene_1-2" data-name="Ebene 1"><g id="bigscanframe"><g id="Gruppe_552" data-name="Gruppe 552"><g id="Gruppe_548" data-name="Gruppe 548"><g id="Gruppe_546" data-name="Gruppe 546"><path class="cls-1" d="M238,241.24H209.16a3.5,3.5,0,1,1,0-7H238a3.5,3.5,0,0,1,0,7Z"/><path class="cls-1" d="M238,241.18a3.5,3.5,0,0,1-3.5-3.5V208a3.5,3.5,0,1,1,7,0v29.65A3.5,3.5,0,0,1,238,241.18Z"/></g><g id="Gruppe_547" data-name="Gruppe 547"><path class="cls-1" d="M3.5,240.79a3.5,3.5,0,0,1-3.5-3.5V208.46a3.5,3.5,0,0,1,7,0v28.83A3.5,3.5,0,0,1,3.5,240.79Z"/><path class="cls-1" d="M33.21,240.81H3.56a3.5,3.5,0,0,1,0-7H33.21a3.5,3.5,0,0,1,0,7Z"/></g></g><g id="Gruppe_551" data-name="Gruppe 551"><g id="Gruppe_549" data-name="Gruppe 549"><path class="cls-1" d="M32.35,7H3.52a3.5,3.5,0,0,1,0-7H32.35a3.5,3.5,0,0,1,0,7Z"/><path class="cls-1" d="M3.5,36.71A3.5,3.5,0,0,1,0,33.21V3.56a3.5,3.5,0,0,1,7,0V33.21A3.5,3.5,0,0,1,3.5,36.71Z"/></g><g id="Gruppe_550" data-name="Gruppe 550"><path class="cls-1" d="M238,36.28a3.5,3.5,0,0,1-3.5-3.5V4a3.5,3.5,0,1,1,7,0V32.78A3.5,3.5,0,0,1,238,36.28Z"/><path class="cls-1" d="M238,7.43H208.29a3.5,3.5,0,0,1,0-7H238a3.5,3.5,0,1,1,0,7Z"/></g></g></g></g></g></g></svg>