<svg xmlns="http://www.w3.org/2000/svg" viewBox="0 0 25.76 25.77"><defs><style>.cls-1{fill:#02856e;}</style></defs><g id="Ebene_2" data-name="Ebene 2"><g id="Ebene_1-2" data-name="Ebene 1"><g id="createbottombar"><g id="Gruppe_340" data-name="Gruppe 340"><path id="Pfad_121" data-name="Pfad 121" class="cls-1" d="M23.72,0H2A2,2,0,0,0,0,2v21.7a2,2,0,0,0,2,2H23.72a2,2,0,0,0,2-2V2A2,2,0,0,0,23.72,0Zm1.09,23.74a1.11,1.11,0,0,1-1.11,1.11H2.05A1.11,1.11,0,0,1,.94,23.74V2.07A1.1,1.1,0,0,1,2,1H23.7a1.09,1.09,0,0,1,1.11,1.09h0Z"/></g><path class="cls-1" d="M12.89,22.42a.41.41,0,0,1-.41-.41V3.8a.41.41,0,0,1,.82,0V22A.41.41,0,0,1,12.89,22.42Z"/><path class="cls-1" d="M22,13.29H3.79a.41.41,0,0,1,0-.82H22a.41.41,0,1,1,0,.82Z"/></g></g></g></svg>