<svg xmlns="http://www.w3.org/2000/svg" viewBox="0 0 71.17 68.77"><defs><style>.cls-1{fill:#22376c;}.cls-2{fill:#fff;}</style></defs><g id="Ebene_2" data-name="Ebene 2"><g id="Ebene_1-2" data-name="Ebene 1"><g id="downloadbutton"><g id="Gruppe_334" data-name="Gruppe 334"><circle id="Ellipse_12" data-name="Ellipse 12" class="cls-1" cx="34.38" cy="34.38" r="34.38"/><path id="Pfad_95" data-name="Pfad 95" class="cls-2" d="M71.17,15.53H69l1.34-2.28.44-.05.14,0Z"/></g><g id="Gruppe_1305" data-name="Gruppe 1305"><g id="Gruppe_1304" data-name="Gruppe 1304"><g id="Gruppe_1303" data-name="Gruppe 1303"><path id="Pfad_147" data-name="Pfad 147" class="cls-2" d="M48.42,33.61l-1.18-1.18a2,2,0,0,0-1.4-.58,2.09,2.09,0,0,0-1.44.58L36.76,40V15.89a1.9,1.9,0,0,0-1.83-2H33.21a2.06,2.06,0,0,0-2.08,2V40.11L23.5,32.43a1.91,1.91,0,0,0-1.37-.58,1.93,1.93,0,0,0-1.38.58l-1.17,1.18a2,2,0,0,0,0,2.79l13,13A1.94,1.94,0,0,0,34,50h0a1.94,1.94,0,0,0,1.4-.57l13-13A2,2,0,0,0,48.42,33.61Z"/></g></g></g></g></g></g></svg>