<svg xmlns="http://www.w3.org/2000/svg" viewBox="0 0 67.83 67.83"><defs><style>.cls-1{fill:#89c7bb;}</style></defs><g id="Ebene_2" data-name="Ebene 2"><g id="Ebene_1-2" data-name="Ebene 1"><path id="happysmilegreen" class="cls-1" d="M33.92,0A33.92,33.92,0,1,0,67.83,33.92h0A33.92,33.92,0,0,0,33.92,0ZM47,15.43a6.14,6.14,0,1,1-6.13,6.14h0A6.13,6.13,0,0,1,47,15.43Zm-26.2,0a6.14,6.14,0,1,1-6.13,6.13h0a6.13,6.13,0,0,1,6.13-6.13Zm15.44,39C26,56,15.09,49.42,11,38.19l42.46,2c-.28.68-5.39,12.42-17.2,14.27Z"/></g></g></svg>