<svg xmlns="http://www.w3.org/2000/svg" viewBox="0 0 33.07 30.62"><defs><style>.cls-1{fill:#29624a;}</style></defs><g id="Ebene_2" data-name="Ebene 2"><g id="Ebene_1-2" data-name="Ebene 1"><path class="cls-1" d="M16.82,30.62l-.22-.11C16.44,30.43.53,22.53,0,9.1A8.73,8.73,0,0,1,2.1,2.52,8.85,8.85,0,0,1,8.36,0h.18c4.09,0,7,3.09,8.08,4.42,1-1.37,3.75-4.53,8.2-4.38A8.41,8.41,0,0,1,31,2.67a8.83,8.83,0,0,1,2,6.69C31.88,23.23,17.18,30.44,17,30.51ZM8.53,1H8.38A7.89,7.89,0,0,0,2.83,3.2,7.76,7.76,0,0,0,1,9.06c.47,12,13.92,19.45,15.81,20.44C18.62,28.56,31,21.66,32,9.27a7.79,7.79,0,0,0-1.75-5.93A7.42,7.42,0,0,0,24.79,1C19.9.89,17.1,5.49,17.08,5.53l-.41.69-.44-.66S13.09,1,8.53,1Z"/></g></g></svg>