<svg xmlns="http://www.w3.org/2000/svg" viewBox="0 0 192 143"><defs><style>.cls-1{fill:#fff;}</style></defs><g id="Ebene_2" data-name="Ebene 2"><g id="Ebene_1-2" data-name="Ebene 1"><path class="cls-1" d="M179.5,143H12.5C7.83,143,0,141,0,127.5V14.5C0,10.91,0,0,11.5,0h166C180.84,0,191,0,191,11.5l1,119C192,137.86,186.86,143,179.5,143ZM11.5,5C7.49,5,5,6.59,5,14.5v113c0,9.31,4,10.5,7.5,10.5h167c5.53,0,7.5-3.87,7.5-7.5l-1-119C186,7.28,184.65,5,177.5,5Z"/><path class="cls-1" d="M96,87.49c-8.31,0-16.62-4.57-25.77-13.72l-67-67L6.77,3.23l67,67c16.2,16.21,28.26,16.21,44.46,0l65-66,3.56,3.5-65,66C112.62,82.91,104.31,87.49,96,87.49Z"/><rect class="cls-1" x="-8.57" y="101.75" width="92.63" height="5" transform="translate(-62.66 57.23) rotate(-45)"/><rect class="cls-1" x="150" y="58.54" width="5" height="91.92" transform="translate(-29.23 138.44) rotate(-45)"/></g></g></svg>