<svg xmlns="http://www.w3.org/2000/svg" viewBox="0 0 30.48 30.48"><defs><style>.cls-1{fill:#19745b;}</style></defs><g id="Ebene_2" data-name="Ebene 2"><g id="Ebene_1-2" data-name="Ebene 1"><g id="listbottombar"><path class="cls-1" d="M25,30.48H5.48A5.48,5.48,0,0,1,0,25V5.48A5.49,5.49,0,0,1,5.48,0H25a5.48,5.48,0,0,1,5.47,5.48V25A5.47,5.47,0,0,1,25,30.48ZM5.48,1.25A4.24,4.24,0,0,0,1.25,5.48V25a4.23,4.23,0,0,0,4.23,4.22H25A4.22,4.22,0,0,0,29.23,25V5.48A4.23,4.23,0,0,0,25,1.25Z"/><g id="Gruppe_1013" data-name="Gruppe 1013"><g id="Gruppe_1010" data-name="Gruppe 1010"><path class="cls-1" d="M8.92,23.7H7.5a1.6,1.6,0,0,1-1.6-1.6V20.68a1.6,1.6,0,0,1,1.6-1.61H8.92a1.6,1.6,0,0,1,1.6,1.61V22.1A1.6,1.6,0,0,1,8.92,23.7ZM7.5,19.57a1.11,1.11,0,0,0-1.1,1.11V22.1a1.1,1.1,0,0,0,1.1,1.1H8.92A1.1,1.1,0,0,0,10,22.1V20.68a1.11,1.11,0,0,0-1.1-1.11Z"/><rect id="Rechteck_479" data-name="Rechteck 479" class="cls-1" x="11.38" y="20.89" width="12.96" height="1" rx="0.47"/></g><g id="Gruppe_1011" data-name="Gruppe 1011"><path class="cls-1" d="M8.92,17.56H7.5A1.6,1.6,0,0,1,5.9,16V14.53a1.6,1.6,0,0,1,1.6-1.6H8.92a1.6,1.6,0,0,1,1.6,1.6V16A1.6,1.6,0,0,1,8.92,17.56ZM7.5,13.43a1.1,1.1,0,0,0-1.1,1.1V16a1.11,1.11,0,0,0,1.1,1.11H8.92A1.11,1.11,0,0,0,10,16V14.53a1.1,1.1,0,0,0-1.1-1.1Z"/><rect id="Rechteck_481" data-name="Rechteck 481" class="cls-1" x="11.38" y="14.74" width="12.96" height="1" rx="0.47"/></g><g id="Gruppe_1012" data-name="Gruppe 1012"><path class="cls-1" d="M8.92,11.41H7.5a1.6,1.6,0,0,1-1.6-1.6V8.38a1.6,1.6,0,0,1,1.6-1.6H8.92a1.6,1.6,0,0,1,1.6,1.6V9.81A1.6,1.6,0,0,1,8.92,11.41ZM7.5,7.28a1.1,1.1,0,0,0-1.1,1.1V9.81a1.1,1.1,0,0,0,1.1,1.1H8.92A1.1,1.1,0,0,0,10,9.81V8.38a1.1,1.1,0,0,0-1.1-1.1Z"/><rect id="Rechteck_483" data-name="Rechteck 483" class="cls-1" x="11.38" y="8.6" width="12.96" height="1" rx="0.47"/></g></g></g></g></g></svg>