<svg xmlns="http://www.w3.org/2000/svg" viewBox="0 0 28.75 28.71"><defs><style>.cls-1{fill:#02856e;}</style></defs><g id="Ebene_2" data-name="Ebene 2"><g id="Ebene_1-2" data-name="Ebene 1"><g id="scanqrtopbar"><g id="Gruppe_343" data-name="Gruppe 343"><path class="cls-1" d="M.65,4.75A.62.62,0,0,1,0,4.13V.63a.63.63,0,0,1,1.25,0v3.5A.63.63,0,0,1,.65,4.75Z"/><path class="cls-1" d="M4.05,1.25H.67A.63.63,0,1,1,.67,0H4.05a.63.63,0,0,1,0,1.25Z"/></g><g id="Gruppe_344" data-name="Gruppe 344"><path class="cls-1" d="M28.13,4.77a.63.63,0,0,1-.63-.62V.65a.63.63,0,0,1,1.25,0v3.5A.62.62,0,0,1,28.13,4.77Z"/><path class="cls-1" d="M28.11,1.27H24.73a.63.63,0,1,1,0-1.25h3.38a.63.63,0,0,1,0,1.25Z"/></g><g id="Gruppe_345" data-name="Gruppe 345"><path class="cls-1" d="M.63,28.71A.63.63,0,0,1,0,28.08v-3.5a.63.63,0,0,1,1.25,0v3.5A.63.63,0,0,1,.63,28.71Z"/><path class="cls-1" d="M4,28.71H.64A.62.62,0,0,1,0,28.09a.63.63,0,0,1,.62-.63H4a.63.63,0,0,1,.63.63A.62.62,0,0,1,4,28.71Z"/></g><g id="Gruppe_346" data-name="Gruppe 346"><path class="cls-1" d="M28.1,28.69a.62.62,0,0,1-.63-.62v-3.5a.63.63,0,0,1,1.25,0v3.5A.62.62,0,0,1,28.1,28.69Z"/><path class="cls-1" d="M28.08,28.7H24.7a.63.63,0,0,1,0-1.25h3.38a.63.63,0,1,1,0,1.25Z"/></g></g></g></g></svg>