<svg xmlns="http://www.w3.org/2000/svg" viewBox="0 0 70.07 70.07"><defs><style>.cls-1{fill:#22376c;}.cls-2{fill:#fff;}</style></defs><g id="Ebene_2" data-name="Ebene 2"><g id="Ebene_1-2" data-name="Ebene 1"><g id="scanbutton"><circle id="Ellipse_8" data-name="Ellipse 8" class="cls-1" cx="35.03" cy="35.03" r="35.03"/><path id="Pfad_91" data-name="Pfad 91" class="cls-2" d="M49.27,27.59V21.54a3.75,3.75,0,0,0-3.6-3.89H24.18a3.74,3.74,0,0,0-3.59,3.89v6.05Z"/><path id="Pfad_92" data-name="Pfad 92" class="cls-2" d="M56.13,35.6V32c0-1.3-2.38-2.34-5.32-2.34H19.05c-2.94,0-5.33,1-5.33,2.34V35.6Z"/><path id="Pfad_93" data-name="Pfad 93" class="cls-2" d="M13.72,37.63v7.64a5.13,5.13,0,0,0,5.33,4.91h6.36V45.87a1.36,1.36,0,0,1,1.37-1.36h16.3a1.38,1.38,0,0,1,1.37,1.36v4.31h6.36a5.13,5.13,0,0,0,5.32-4.91V37.63Zm38.83,6.42a1,1,0,0,1-1,1H49.9a1,1,0,0,1-1-1V42.36a1,1,0,0,1,1-1h1.69a1,1,0,0,1,1,1ZM42.43,46.29h-15a.21.21,0,0,0-.21.2v5.28a1,1,0,0,0,1,1H41.61a1,1,0,0,0,1-1h0V46.49a.22.22,0,0,0-.22-.2Z"/></g></g></g></svg>