<svg xmlns="http://www.w3.org/2000/svg" viewBox="0 0 30.09 30.05"><defs><style>.cls-1{fill:#19745b;}</style></defs><g id="Ebene_2" data-name="Ebene 2"><g id="Ebene_1-2" data-name="Ebene 1"><g id="scanbottombar"><path class="cls-1" d="M12.29,12.7H4.18a.49.49,0,0,1-.49-.49V4.12a.49.49,0,0,1,.49-.49h8.11a.49.49,0,0,1,.49.49v8.09A.49.49,0,0,1,12.29,12.7Zm-7.78-.82H12V4.45H4.51Z"/><path class="cls-1" d="M26,12.7H17.92a.49.49,0,0,1-.49-.49V4.12a.49.49,0,0,1,.49-.49H26a.49.49,0,0,1,.49.49v8.09A.49.49,0,0,1,26,12.7Zm-7.79-.82h7.47V4.45H18.24Z"/><path class="cls-1" d="M12.29,26.4H4.18a.49.49,0,0,1-.49-.49V17.82a.49.49,0,0,1,.49-.49h8.11a.49.49,0,0,1,.49.49v8.09A.49.49,0,0,1,12.29,26.4Zm-7.78-.82H12V18.15H4.51Z"/><g id="Gruppe_341" data-name="Gruppe 341"><path class="cls-1" d="M26,26.4H17.92a.49.49,0,0,1-.49-.49V17.82a.49.49,0,0,1,.49-.49H26a.49.49,0,0,1,.49.49v8.09A.49.49,0,0,1,26,26.4Zm-7.79-.82h7.47V18.15H18.24Z"/></g><g id="Gruppe_342" data-name="Gruppe 342"><path class="cls-1" d="M15.05,26.48a.42.42,0,0,1-.41-.41V4a.41.41,0,0,1,.41-.41.41.41,0,0,1,.41.41V26.07A.41.41,0,0,1,15.05,26.48Z"/><path class="cls-1" d="M26.08,15.45H4A.42.42,0,0,1,3.61,15,.41.41,0,0,1,4,14.63H26.08a.41.41,0,0,1,.41.41A.42.42,0,0,1,26.08,15.45Z"/></g><g id="Gruppe_343" data-name="Gruppe 343"><path class="cls-1" d="M.44,4.55A.41.41,0,0,1,0,4.14V.42A.41.41,0,0,1,.44,0,.41.41,0,0,1,.85.42V4.14A.41.41,0,0,1,.44,4.55Z"/><path class="cls-1" d="M4.05.82H.45A.41.41,0,0,1,.45,0h3.6a.41.41,0,0,1,.41.41A.41.41,0,0,1,4.05.82Z"/></g><g id="Gruppe_344" data-name="Gruppe 344"><path class="cls-1" d="M29.68,4.57a.41.41,0,0,1-.41-.41V.44A.41.41,0,0,1,29.68,0a.41.41,0,0,1,.41.41V4.16A.41.41,0,0,1,29.68,4.57Z"/><path class="cls-1" d="M29.66.84H26.07a.41.41,0,0,1-.41-.41A.41.41,0,0,1,26.07,0h3.59a.41.41,0,0,1,.41.41A.41.41,0,0,1,29.66.84Z"/></g><g id="Gruppe_345" data-name="Gruppe 345"><path class="cls-1" d="M.41,30.05A.41.41,0,0,1,0,29.64V25.91a.41.41,0,0,1,.41-.41.42.42,0,0,1,.41.41v3.73A.42.42,0,0,1,.41,30.05Z"/><path class="cls-1" d="M4,30.05H.43a.41.41,0,1,1,0-.81H4a.41.41,0,1,1,0,.81Z"/></g><g id="Gruppe_346" data-name="Gruppe 346"><path class="cls-1" d="M29.65,30a.41.41,0,0,1-.41-.41V25.9a.41.41,0,0,1,.41-.41.41.41,0,0,1,.41.41v3.72A.41.41,0,0,1,29.65,30Z"/><path class="cls-1" d="M29.64,30H26a.41.41,0,0,1,0-.82h3.6a.41.41,0,0,1,0,.82Z"/></g></g></g></g></svg>