<svg xmlns="http://www.w3.org/2000/svg" viewBox="0 0 68.42 68.42"><defs><style>.cls-1{fill:#22376c;}.cls-2{fill:#fff;}</style></defs><g id="Ebene_2" data-name="Ebene 2"><g id="Ebene_1-2" data-name="Ebene 1"><g id="sharebutton"><circle id="Ellipse_9" data-name="Ellipse 9" class="cls-1" cx="34.21" cy="34.21" r="34.21"/><g id="Gruppe_332" data-name="Gruppe 332"><circle id="Ellipse_10" data-name="Ellipse 10" class="cls-2" cx="42.1" cy="22.98" r="5.85"/><circle id="Ellipse_11" data-name="Ellipse 11" class="cls-2" cx="42.1" cy="45.86" r="5.85"/><path id="Pfad_94" data-name="Pfad 94" class="cls-2" d="M27.75,34.39a6,6,0,0,0-.36-2l10.85-6.53-.92-1.53L26.56,30.77a6.14,6.14,0,1,0-1.35,8.58A5.94,5.94,0,0,0,26.58,38l10.34,6.28.91-1.5L27.39,36.42A5.87,5.87,0,0,0,27.75,34.39Zm-1.78,0A4.37,4.37,0,1,1,21.61,30,4.37,4.37,0,0,1,26,34.39Z"/></g></g></g></g></svg>